<?xml version="1.0" encoding="UTF-8" standalone="no"?>
<svg
   version="1.1"
   width="489px"
   height="492px"
   style="shape-rendering:geometricPrecision; text-rendering:geometricPrecision; image-rendering:optimizeQuality; fill-rule:evenodd; clip-rule:evenodd"
   id="svg43"
   sodipodi:docname="border.svg"
   inkscape:version="1.3 (0e150ed6c4, 2023-07-21)"
   xmlns:inkscape="http://www.inkscape.org/namespaces/inkscape"
   xmlns:sodipodi="http://sodipodi.sourceforge.net/DTD/sodipodi-0.dtd"
   xmlns="http://www.w3.org/2000/svg"
   xmlns:svg="http://www.w3.org/2000/svg">
  <defs
     id="defs43" />
  <sodipodi:namedview
     id="namedview43"
     pagecolor="#ffffff"
     bordercolor="#000000"
     borderopacity="0.25"
     inkscape:showpageshadow="2"
     inkscape:pageopacity="0.0"
     inkscape:pagecheckerboard="0"
     inkscape:deskcolor="#d1d1d1"
     inkscape:zoom="0.48261759"
     inkscape:cx="-49.728814"
     inkscape:cy="214.45551"
     inkscape:window-width="1024"
     inkscape:window-height="705"
     inkscape:window-x="-8"
     inkscape:window-y="-8"
     inkscape:window-maximized="1"
     inkscape:current-layer="svg43" />
  <g
     id="g1">
    <path
       style="opacity:1"
       fill="#af860e"
       d="M 139.5,30.5 C 137.969,29.0755 138.302,28.4088 140.5,28.5C 144.612,30.7279 148.612,33.2279 152.5,36C 169.734,43.7138 180.734,38.5472 185.5,20.5C 184.213,9.03898 177.879,3.53898 166.5,4C 164.308,4.92601 162.308,6.09267 160.5,7.5C 159.167,7.5 158.5,6.83333 158.5,5.5C 163.176,0.876809 168.843,-0.623191 175.5,1C 183.134,4.133 188.134,9.633 190.5,17.5C 196.762,18.7268 203.096,19.5602 209.5,20C 300.166,20.5 390.833,20.6667 481.5,20.5C 481.5,21.5 481.5,22.5 481.5,23.5C 390.497,23.3674 299.497,23.8674 208.5,25C 202.796,25.3669 197.13,26.0336 191.5,27C 187.619,30.7277 183.952,34.7277 180.5,39C 171.07,45.7717 161.403,46.1051 151.5,40C 147.025,37.3501 143.025,34.1834 139.5,30.5 Z"
       id="path1" />
  </g>
  <g
     id="g2">
    <path
       style="opacity:1"
       fill="#a78110"
       d="M 150.5,13.5 C 149.833,16.8333 149.167,20.1667 148.5,23.5C 143.245,18.3754 136.912,15.7088 129.5,15.5C 128.833,15.5 128.5,15.1667 128.5,14.5C 134.208,10.4883 139.875,10.8216 145.5,15.5C 145.996,7.80248 149.83,2.80248 157,0.5C 157.5,0.666667 158,0.833333 158.5,1C 154.438,4.29568 151.771,8.46234 150.5,13.5 Z"
       id="path2" />
  </g>
  <g
     id="g3">
    <path
       style="opacity:1"
       fill="#9c7910"
       d="M 85.5,17.5 C 85.9321,18.7095 86.5987,19.7095 87.5,20.5C 88.7677,28.0455 87.601,28.0455 84,20.5C 78.4187,15.6275 71.9187,12.7942 64.5,12C 71.1818,9.60709 77.5151,10.2738 83.5,14C 84.305,15.1127 84.9717,16.2794 85.5,17.5 Z"
       id="path3" />
  </g>
  <g
     id="g4">
    <path
       style="opacity:1"
       fill="#9c7910"
       d="M 92.5,25.5 C 92.5,24.5 92.5,23.5 92.5,22.5C 94.1921,20.7952 95.5254,18.7952 96.5,16.5C 98.1198,14.0158 100.453,12.5158 103.5,12C 107.167,11.3333 110.833,11.3333 114.5,12C 115.672,12.4186 116.672,13.0853 117.5,14C 107.343,14.0811 99.0101,17.9145 92.5,25.5 Z"
       id="path4" />
  </g>
  <g
     id="g5">
    <path
       style="opacity:1"
       fill="#b2880e"
       d="M 163.5,11.5 C 171.486,10.998 173.486,14.1647 169.5,21C 161.424,21.8047 159.424,18.638 163.5,11.5 Z"
       id="path5" />
  </g>
  <g
     id="g6">
    <path
       style="opacity:1"
       fill="#b1880e"
       d="M 94.5,16.5 C 93.925,18.4113 92.925,20.078 91.5,21.5C 91.5,21.8333 91.5,22.1667 91.5,22.5C 90.8333,22.1667 90.1667,21.8333 89.5,21.5C 89.1667,20.8333 88.8333,20.1667 88.5,19.5C 87.8902,18.609 87.5569,17.609 87.5,16.5C 88.265,15.3398 89.265,14.3398 90.5,13.5C 91.8518,14.5244 93.1851,15.5244 94.5,16.5 Z"
       id="path6" />
  </g>
  <g
     id="g8">
    <path
       style="opacity:1"
       fill="#92730e"
       d="M 158.5,5.5 C 158.5,6.83333 159.167,7.5 160.5,7.5C 154.677,14.3915 155.344,20.5582 162.5,26C 166.981,27.112 170.981,26.2787 174.5,23.5C 174.489,25.0174 173.823,26.1841 172.5,27C 165.757,29.9908 160.257,28.4908 156,22.5C 153.526,16.2322 154.359,10.5655 158.5,5.5 Z"
       id="path8" />
  </g>
  <g
     id="g9">
    <path
       style="opacity:1"
       fill="#a8810f"
       d="M 67.5,17.5 C 81.255,18.4296 87.0883,25.763 85,39.5C 81.2685,46.78 75.4352,49.28 67.5,47C 60.7789,42.456 59.4455,36.7893 63.5,30C 68.6819,26.1325 72.6819,26.9659 75.5,32.5C 69.9516,28.1001 65.9516,29.2667 63.5,36C 65.2228,43.238 69.5562,45.5713 76.5,43C 83.0407,36.5706 83.0407,30.0706 76.5,23.5C 73.2429,21.1207 69.5762,20.1207 65.5,20.5C 65.3893,19.8826 65.056,19.3826 64.5,19C 65.7375,18.7679 66.7375,18.2679 67.5,17.5 Z"
       id="path9" />
  </g>
  <g
     id="g11">
    <path
       style="opacity:1"
       fill="#7d6411"
       d="M 111.5,18.5 C 111.5,19.1667 111.833,19.5 112.5,19.5C 105.435,20.4479 99.2686,23.4479 94,28.5C 93.3333,27.8333 93.3333,27.1667 94,26.5C 99.0299,22.0683 104.863,19.4016 111.5,18.5 Z"
       id="path11" />
  </g>
  <g
     id="g12">
    <path
       style="opacity:1"
       fill="#977610"
       d="M 140.5,28.5 C 138.302,28.4088 137.969,29.0755 139.5,30.5C 134.555,27.6905 129.555,24.8572 124.5,22C 120.622,20.5302 116.622,19.6969 112.5,19.5C 111.833,19.5 111.5,19.1667 111.5,18.5C 122.556,17.4088 132.223,20.7422 140.5,28.5 Z"
       id="path12" />
  </g>
  <g
     id="g15">
    <path
       style="opacity:1"
       fill="#957510"
       d="M 67.5,17.5 C 66.7375,18.2679 65.7375,18.7679 64.5,19C 65.056,19.3826 65.3893,19.8826 65.5,20.5C 53.7953,24.5439 48.6287,32.8773 50,45.5C 47.4828,31.6588 39.6495,22.4922 26.5,18C 37.7012,17.3516 45.5345,22.1849 50,32.5C 52.6243,23.7061 58.4576,18.7061 67.5,17.5 Z"
       id="path15" />
  </g>
  <g
     id="g17">
    <path
       style="opacity:1"
       fill="#353510"
       d="M 174.5,22.5 C 175.833,23.1667 175.833,23.1667 174.5,22.5 Z"
       id="path17" />
  </g>
  <g
     id="g18">
    <path
       style="opacity:1"
       fill="#192212"
       d="M 92.5,25.5 C 91.8333,26.1667 91.8333,26.1667 92.5,25.5 Z"
       id="path18" />
  </g>
  <g
     id="g19">
    <path
       style="opacity:1"
       fill="#a47f0f"
       d="M 124.5,27.5 C 122.393,28.4682 120.059,28.8016 117.5,28.5C 103.144,30.2651 92.6443,37.5984 86,50.5C 88.4228,38.3967 95.5894,30.23 107.5,26C 113.332,25.1247 118.999,25.6247 124.5,27.5 Z"
       id="path19" />
  </g>
  <g
     id="g21">
    <path
       style="opacity:1"
       fill="#665511"
       d="M 124.5,27.5 C 127.09,28.1283 129.423,29.295 131.5,31C 131,31.1667 130.5,31.3333 130,31.5C 125.767,30.2146 121.601,29.2146 117.5,28.5C 120.059,28.8016 122.393,28.4682 124.5,27.5 Z"
       id="path21" />
  </g>
  <g
     id="g23">
    <path
       style="opacity:1"
       fill="#b2880e"
       d="M 37.5,34.5 C 44.1584,33.3445 46.1584,35.8445 43.5,42C 40.4904,44.2219 37.9904,43.7219 36,40.5C 35.5906,38.3049 36.0906,36.3049 37.5,34.5 Z"
       id="path23" />
  </g>
  <g
     id="g26">
    <path
       style="opacity:1"
       fill="#b88c0d"
       d="M 53.5,50.5 C 55.9653,50.767 58.2986,51.4336 60.5,52.5C 62.5313,52.9724 64.1979,53.9724 65.5,55.5C 65.2229,58.4475 65.5562,61.2809 66.5,64C 62.5068,63.1775 58.5068,63.3441 54.5,64.5C 54.3089,60.7379 53.6422,57.0712 52.5,53.5C 52.2627,52.209 52.596,51.209 53.5,50.5 Z"
       id="path26" />
  </g>
  <g
     id="g28">
    <path
       style="opacity:1"
       fill="#a6800f"
       d="M 20.5,27.5 C 25.154,38.1518 33.154,44.8185 44.5,47.5C 43.0813,48.4511 41.4147,48.7845 39.5,48.5C 27.4416,50.9605 21.9416,58.2939 23,70.5C 26.3452,78.5899 32.1785,81.4232 40.5,79C 46.1429,74.5101 46.8096,69.5101 42.5,64C 37.9337,61.4223 34.2671,62.2556 31.5,66.5C 30.6618,66.1583 30.3284,65.4916 30.5,64.5C 30.8588,62.629 31.8588,61.129 33.5,60C 47.1044,58.3326 51.9377,64.166 48,77.5C 43.0543,84.3631 36.5543,86.1964 28.5,83C 19.5151,76.9753 17.0151,68.8086 21,58.5C 24.0431,53.1232 28.5431,49.6232 34.5,48C 26.1198,45.0777 21.1198,39.2443 19.5,30.5C 19.2627,29.209 19.596,28.209 20.5,27.5 Z"
       id="path28" />
  </g>
  <g
     id="g29">
    <path
       style="opacity:1"
       fill="#625210"
       d="M 30.5,64.5 C 30.3284,65.4916 30.6618,66.1583 31.5,66.5C 31.0739,70.4994 32.7406,72.9994 36.5,74C 31.8775,74.5511 29.5442,72.3845 29.5,67.5C 29.5195,66.2739 29.8529,65.2739 30.5,64.5 Z"
       id="path29" />
  </g>
  <g
     id="g30">
    <path
       style="opacity:1"
       fill="#9c7910"
       d="M 21.5,85.5 C 20.7095,84.5987 19.7095,83.9321 18.5,83.5C 14.2116,80.5036 11.8783,76.3369 11.5,71C 12.0592,68.0585 12.8926,65.2252 14,62.5C 14.5995,73.2028 19.4329,81.3694 28.5,87C 26.1154,86.989 23.782,86.489 21.5,85.5 Z"
       id="path30" />
  </g>
  <g
     id="g32">
    <path
       style="opacity:1"
       fill="#a27d10"
       d="M 18.5,85.5 C 19.1667,85.8333 19.8333,86.1667 20.5,86.5C 21.766,87.0899 23.0993,87.5899 24.5,88C 25.7383,88.69 25.7383,89.19 24.5,89.5C 22.2512,90.0798 20.5846,91.4131 19.5,93.5C 14.8475,91.2449 14.5142,88.5782 18.5,85.5 Z"
       id="path32" />
  </g>
  <g
     id="g34">
    <path
       style="opacity:1"
       fill="#9d7a10"
       d="M 49.5,83.5 C 50.552,83.3505 51.552,83.5172 52.5,84C 33.6792,94.4614 27.1792,109.961 33,130.5C 23.6136,115.536 25.4469,102.036 38.5,90C 41.9329,87.2894 45.5995,85.1227 49.5,83.5 Z"
       id="path34" />
  </g>
  <g
     id="g35">
    <path
       style="opacity:1"
       fill="#9f7b11"
       d="M 25.5,92.5 C 20.8657,96.8281 17.8657,102.161 16.5,108.5C 15.8333,110.5 15.1667,112.5 14.5,114.5C 11.6761,109.105 11.8427,103.772 15,98.5C 15.8763,96.3645 17.3763,95.0312 19.5,94.5C 20.973,93.2599 22.6396,92.2599 24.5,91.5C 25.1067,91.6236 25.44,91.9569 25.5,92.5 Z"
       id="path35" />
  </g>
  <g
     id="g37">
    <path
       style="opacity:1"
       fill="#80660f"
       d="M 24.5,125.5 C 23.0755,123.969 22.4088,124.302 22.5,126.5C 17.7661,115.982 18.7661,105.982 25.5,96.5C 25.8333,96.6667 26.1667,96.8333 26.5,97C 20.6529,106.127 19.9863,115.627 24.5,125.5 Z"
       id="path37" />
  </g>
  <g
     id="g38">
    <path
       style="opacity:1"
       fill="#a27d10"
       d="M 16.5,125.5 C 17.2389,125.369 17.9056,125.536 18.5,126C 16.8734,134.772 19.5401,142.106 26.5,148C 17.2159,147.104 9.38259,149.937 3,156.5C 2.49445,153.326 3.32778,150.493 5.5,148C 9.23155,145.867 13.2316,144.534 17.5,144C 12.7235,137.992 12.3902,131.826 16.5,125.5 Z"
       id="path38" />
  </g>
  <g
     id="g39">
    <path
       style="opacity:1"
       fill="#b3890e"
       d="M 24.5,125.5 C 29.4147,132.931 34.5813,140.264 40,147.5C 50.1328,164.894 46.4662,178.561 29,188.5C 27.4894,196.428 26.4894,204.428 26,212.5C 25.5,301.499 25.3333,390.499 25.5,479.5C 24.5,479.5 23.5,479.5 22.5,479.5C 22.6233,387.163 22.1233,294.83 21,202.5C 20.8113,197.749 20.1447,193.083 19,188.5C 5.40684,184.122 0.240172,175.122 3.5,161.5C 4.90632,161.027 5.57298,160.027 5.5,158.5C 7.29645,156.1 9.62978,154.433 12.5,153.5C 10.9689,154.925 11.3023,155.591 13.5,155.5C 5.29632,160.664 3.46299,167.664 8,176.5C 15.9594,184.846 24.7927,185.679 34.5,179C 41.2191,172.719 43.0524,165.219 40,156.5C 33.9121,146.595 28.0788,136.595 22.5,126.5C 22.4088,124.302 23.0755,123.969 24.5,125.5 Z"
       id="path39" />
  </g>
  <g
     id="g40">
    <path
       style="opacity:1"
       fill="#aa830e"
       d="M 21.5,153.5 C 19.1667,154.167 16.8333,154.833 14.5,155.5C 14.1667,155.5 13.8333,155.5 13.5,155.5C 11.3023,155.591 10.9689,154.925 12.5,153.5C 15.6038,152.225 18.6038,152.225 21.5,153.5 Z"
       id="path40" />
  </g>
  <g
     id="g41">
    <path
       style="opacity:1"
       fill="#7a6211"
       d="M 21.5,153.5 C 29.0816,156.399 31.5816,161.733 29,169.5C 27.8656,172 26.0323,173.167 23.5,173C 30.5019,166.358 29.8352,160.691 21.5,156C 19.1902,155.503 16.8568,155.337 14.5,155.5C 16.8333,154.833 19.1667,154.167 21.5,153.5 Z"
       id="path41" />
  </g>
  <g
     id="g42">
    <path
       style="opacity:1"
       fill="#5e5012"
       d="M 5.5,158.5 C 5.57298,160.027 4.90632,161.027 3.5,161.5C 3.42702,159.973 4.09368,158.973 5.5,158.5 Z"
       id="path42" />
  </g>
  <g
     id="g43">
    <path
       style="opacity:1"
       fill="#b58a0e"
       d="M 16.5,159.5 C 22.4271,160.023 24.2604,163.023 22,168.5C 17.7943,171.006 14.6276,169.839 12.5,165C 13.0359,162.492 14.3692,160.659 16.5,159.5 Z"
       id="path43" />
  </g>
</svg>
